# xmcd
#
# Track frame offsets: 
#        150
#        8905
#        19022
#        31715
#        42662
#        52632
#        64420
#        77610
#        88717
#        98017
#        108290
#        121785
#        130547
#        146390
#        158012
#        167082
#        183287
#        196037
#        205257
#        213732
#        223335
#        233000
#        245227
#
# Disc length: 3506 seconds
#
# Revision: 2
# Processed by: cddbd v1.5.2PL0 Copyright (c) Steve Scherf et al.
# Submitted via: ExactAudioCopyFreeDBPlugin 1.0
#
DISCID=300db017
DTITLE=典礼聖歌研究会 - 詩編唱和（新しい歌を神に歌おう）
DYEAR=1977
DGENRE=Religious
TTITLE0=詩編095・神に向かって
TTITLE1=詩編100・わたしたちは神の民
TTITLE2=詩編084・しあわせな人
TTITLE3=詩編033・神の注がれる目は
TTITLE4=詩編008・神の名は
TTITLE5=詩編057・栄光は世界におよび
TTITLE6=詩編019・天は神の栄光を語り
TTITLE7=詩編119・神よあなたのことばは
TTITLE8=詩編040・神の御旨を行うことは
TTITLE9=詩編139・神のはからいは
TTITLE10=詩編078・神のわざを思い起こそう
TTITLE11=詩編111・神は残された不思議なわざの記念を
TTITLE12=詩編063・荒地のかわき果てた土のように
TTITLE13=詩編080・神よわたしに目を注ぎ
TTITLE14=詩編004・神よあなたの顔の光を
TTITLE15=詩編137・エルサレムよ、おまえを忘れるよりは
TTITLE16=詩編145・いのちあるすべてのものに
TTITLE17=詩編034・主を仰ぎ見て
TTITLE18=詩編023・主はわれらの牧者
TTITLE19=詩編103・心を尽くして神をたたえ
TTITLE20=詩編136・主をたたえよう
TTITLE21=詩編146・いのちあるすべてのものは
TTITLE22=詩編092・たて琴をかなで
EXTD=
EXTT0=
EXTT1=
EXTT2=
EXTT3=
EXTT4=
EXTT5=
EXTT6=
EXTT7=
EXTT8=
EXTT9=
EXTT10=
EXTT11=
EXTT12=
EXTT13=
EXTT14=
EXTT15=
EXTT16=
EXTT17=
EXTT18=
EXTT19=
EXTT20=
EXTT21=
EXTT22=
PLAYORDER=
